<?xml version="1.0" standalone="no"?>
<!DOCTYPE svg PUBLIC "-//W3C//DTD SVG 20010904//EN"
 "http://www.w3.org/TR/2001/REC-SVG-20010904/DTD/svg10.dtd">
<svg version="1.0" xmlns="http://www.w3.org/2000/svg"
 width="1500.000000pt" height="1500.000000pt" viewBox="0 0 1500.000000 1500.000000"
 preserveAspectRatio="xMidYMid meet">
<metadata>
Created by potrace 1.11, written by Peter Selinger 2001-2013
</metadata>
<g transform="translate(0.000000,1500.000000) scale(0.100000,-0.100000)"
fill="#000000" stroke="none">
<path d="M4190 14969 c-14 -11 -32 -23 -40 -27 -8 -4 -101 -64 -205 -133 -105
-69 -298 -197 -430 -284 -132 -87 -386 -255 -565 -373 -179 -118 -383 -253
-455 -300 -71 -47 -132 -89 -135 -93 -8 -11 -4 -8257 4 -8379 3 -58 8 -121 11
-140 2 -19 7 -62 10 -95 5 -57 12 -109 20 -165 2 -14 9 -61 15 -105 10 -64 56
-301 74 -375 83 -341 214 -706 365 -1010 86 -173 227 -422 243 -428 4 -2 8 -8
8 -14 0 -18 238 -356 320 -455 5 -6 44 -53 87 -105 153 -185 449 -485 643
-653 379 -326 855 -629 1265 -804 55 -24 114 -49 132 -57 43 -19 269 -100 363
-129 173 -54 470 -128 479 -119 3 2 6 12 8 22 5 26 3 252 -2 292 -2 19 -7 55
-10 80 -3 25 -13 79 -21 120 -9 41 -18 86 -20 100 -8 43 -66 231 -100 328 -86
241 -270 629 -402 850 -18 29 -32 55 -32 57 0 6 -226 370 -281 452 -74 111
-230 333 -360 513 -352 487 -576 867 -699 1185 -23 61 -49 125 -56 143 -8 18
-14 41 -14 52 0 10 -4 21 -9 24 -5 3 -11 18 -14 33 -2 16 -14 64 -25 108 -32
122 -52 228 -67 355 -25 208 -18 544 16 773 6 40 13 88 16 107 7 45 45 213 73
315 49 183 175 480 282 667 244 425 628 835 1049 1119 88 59 90 60 204 124 55
31 107 60 115 65 49 30 292 133 410 173 152 51 380 108 496 122 27 4 56 8 64
10 16 4 73 11 215 25 90 8 558 6 605 -3 14 -3 52 -8 85 -11 33 -4 71 -8 85
-10 14 -3 43 -8 65 -11 22 -4 54 -9 70 -12 69 -11 277 -64 370 -93 486 -155
897 -411 1286 -800 396 -396 642 -788 798 -1276 23 -69 43 -135 45 -147 2 -12
9 -40 15 -62 16 -62 49 -234 56 -300 4 -33 9 -68 11 -78 24 -131 25 -636 0
-762 -2 -11 -9 -54 -16 -95 -14 -90 -54 -252 -81 -335 -11 -33 -22 -67 -24
-75 -5 -23 -70 -189 -100 -255 -41 -92 -155 -317 -176 -347 -11 -14 -19 -29
-19 -31 0 -9 -107 -183 -198 -322 -85 -129 -227 -332 -361 -515 -82 -111 -90
-124 -236 -340 -110 -164 -198 -303 -247 -391 -45 -81 -53 -94 -58 -99 -22
-22 -330 -642 -330 -665 0 -2 -11 -28 -24 -57 -31 -67 -109 -285 -131 -363 -9
-33 -23 -78 -30 -100 -16 -49 -52 -222 -60 -290 -4 -27 -8 -61 -11 -75 -6 -32
-6 -239 0 -265 2 -11 5 -23 5 -26 1 -4 27 0 59 7 31 8 70 16 86 19 136 26 532
154 726 235 120 50 279 122 310 140 8 5 35 19 60 31 40 20 211 115 282 158
249 148 636 439 844 636 173 163 388 386 489 506 512 608 855 1263 1035 1979
27 104 24 91 50 225 33 167 55 298 66 395 3 30 8 66 12 80 3 14 7 264 8 555 2
394 -1 558 -11 640 -8 61 -16 133 -20 160 -17 151 -74 428 -125 615 -140 516
-358 993 -653 1430 -70 104 -220 307 -270 365 -14 17 -67 80 -118 140 -103
121 -424 446 -534 540 -38 33 -81 70 -95 83 -55 50 -322 254 -434 331 -608
420 -1305 694 -2041 805 -129 20 -155 23 -240 31 -38 4 -77 9 -86 10 -128 24
-825 24 -1026 0 -15 -1 -55 -6 -88 -9 -124 -14 -230 -27 -245 -31 -8 -2 -33
-6 -55 -10 -22 -3 -67 -10 -100 -16 -33 -6 -71 -13 -85 -15 -73 -13 -400 -97
-495 -127 -381 -121 -739 -282 -1070 -482 -135 -81 -353 -232 -493 -341 -73
-57 -134 -104 -136 -104 -3 0 -4 1188 -3 2640 1 1755 -1 2640 -8 2640 -5 0
-21 -10 -35 -21z"/>
<path d="M8758 8083 c-69 -93 -286 -384 -483 -648 -198 -264 -518 -694 -713
-955 -196 -261 -424 -567 -508 -680 -84 -113 -156 -209 -161 -215 -4 -5 -66
-89 -138 -185 -71 -96 -135 -182 -142 -190 -7 -8 -41 -54 -77 -103 l-65 -87
42 -21 c48 -24 137 -73 182 -99 17 -9 75 -41 130 -70 55 -29 125 -66 155 -83
30 -16 84 -45 120 -65 36 -19 88 -47 115 -62 28 -15 82 -44 120 -65 141 -76
180 -98 188 -104 7 -7 -6 -44 -123 -371 -29 -80 -74 -206 -100 -280 -27 -74
-78 -218 -115 -320 -162 -449 -210 -582 -250 -695 -23 -66 -63 -176 -88 -245
-25 -69 -71 -197 -102 -285 -59 -166 -129 -360 -147 -407 -11 -31 -11 -31
-161 8 -80 20 -88 21 -84 6 16 -50 101 -298 103 -301 4 -4 224 -50 269 -55 17
-2 46 -7 65 -10 124 -21 207 -30 403 -42 188 -12 546 -6 662 10 17 2 61 7 100
11 111 10 348 52 499 87 l140 33 54 150 c73 204 70 188 36 175 -79 -30 -388
-108 -494 -125 -19 -3 -42 -8 -50 -10 -8 -2 -37 -6 -65 -10 -27 -3 -57 -8 -65
-10 -21 -5 -194 -22 -315 -30 -78 -6 -456 -6 -495 -1 -14 2 -64 7 -112 10 -48
4 -98 9 -110 11 -13 2 -45 6 -73 10 -124 14 -296 49 -292 59 4 9 394 536 486
656 10 14 123 165 250 335 126 171 234 315 238 320 5 6 83 109 173 230 90 121
268 360 395 530 205 275 449 602 733 983 51 68 92 127 92 131 0 5 -33 25 -72
46 -40 20 -127 67 -193 102 -66 36 -154 84 -195 106 -41 22 -88 47 -105 57
-16 9 -70 39 -120 65 -49 26 -151 81 -227 122 l-136 74 43 122 c24 67 65 181
90 252 26 72 58 159 70 195 13 36 41 115 63 175 112 308 225 625 238 665 8 25
19 54 24 65 5 11 75 205 155 430 80 226 150 419 155 430 18 43 119 330 116
332 -2 2 -59 -72 -128 -164z"/>
<path d="M8465 1424 c-27 -7 -63 -16 -80 -18 -16 -3 -75 -14 -130 -25 -55 -11
-121 -22 -147 -25 -27 -3 -67 -8 -90 -11 -24 -3 -59 -7 -78 -9 -19 -2 -66 -7
-105 -11 -121 -13 -500 -19 -635 -11 -188 12 -486 49 -605 76 -22 5 -54 11
-72 14 l-31 6 19 -86 c10 -48 22 -115 25 -150 5 -49 11 -64 23 -65 9 0 23 -2
31 -4 21 -4 74 -14 113 -20 17 -3 43 -7 57 -10 14 -2 50 -7 80 -10 30 -4 66
-8 80 -10 14 -2 61 -7 106 -10 44 -3 100 -7 125 -10 51 -6 534 -6 594 -1 22 2
79 7 127 10 48 4 95 8 105 10 10 2 45 7 78 10 101 12 127 16 205 31 14 3 39 7
55 10 17 2 41 7 55 10 14 3 41 8 60 11 52 10 70 22 70 48 0 13 9 68 21 122 11
55 22 109 25 122 5 26 -6 27 -81 6z"/>
<path d="M8448 1005 c-5 -6 -232 -48 -318 -59 -25 -4 -56 -9 -70 -11 -32 -5
-99 -13 -175 -19 -33 -3 -89 -9 -125 -12 -92 -10 -592 -11 -670 -2 -36 4 -96
9 -135 12 -77 6 -152 13 -205 21 -19 3 -65 10 -101 15 -36 5 -74 12 -83 16
-14 5 -16 -4 -17 -72 0 -44 -2 -86 -3 -94 -2 -8 -6 -39 -10 -67 -5 -46 -4 -53
11 -54 10 0 29 -2 43 -5 85 -14 162 -25 210 -30 30 -3 66 -7 80 -8 216 -29
775 -29 1055 0 51 5 251 31 315 41 74 11 231 42 240 48 5 3 7 11 4 18 -7 20
-13 93 -13 185 -1 61 -4 82 -14 82 -8 0 -16 -2 -19 -5z"/>
<path d="M8110 509 c-19 -4 -71 -11 -115 -14 -44 -4 -89 -9 -100 -11 -129 -25
-686 -24 -977 1 -27 3 -48 0 -48 -5 0 -25 45 -125 82 -181 86 -135 239 -245
393 -284 75 -20 265 -18 343 2 141 37 295 144 373 259 57 83 110 218 92 234
-4 4 -24 3 -43 -1z"/>
</g>
</svg>
