<?xml version="1.0" standalone="no"?>
<!DOCTYPE svg PUBLIC "-//W3C//DTD SVG 20010904//EN"
 "http://www.w3.org/TR/2001/REC-SVG-20010904/DTD/svg10.dtd">
<svg version="1.0" xmlns="http://www.w3.org/2000/svg"
 width="77.000000pt" height="115.000000pt" viewBox="0 0 77.000000 115.000000"
 preserveAspectRatio="xMidYMid meet">
<metadata>
Created by potrace 1.11, written by Peter Selinger 2001-2013
</metadata>
<g transform="translate(0.000000,115.000000) scale(0.100000,-0.100000)"
fill="#000000" stroke="none">
<path d="M309 1135 c-81 -17 -118 -36 -181 -94 -39 -35 -68 -75 -90 -119 -30
-60 -33 -75 -33 -157 0 -81 3 -97 32 -156 18 -36 50 -89 72 -118 21 -29 59
-88 83 -131 40 -73 46 -78 87 -88 47 -11 190 -9 232 2 18 5 36 25 59 69 18 34
59 100 90 147 93 140 105 171 105 275 0 82 -3 96 -33 155 -17 36 -42 76 -55
90 -95 105 -234 153 -368 125z m187 -217 c-24 -68 -49 -135 -54 -150 -12 -28
-8 -32 81 -77 15 -8 27 -18 27 -23 0 -10 -258 -358 -265 -358 -4 0 -4 4 0 9 5
9 73 194 79 216 2 6 6 19 10 30 5 11 9 25 11 31 2 5 -23 24 -54 40 -31 16 -56
35 -56 41 0 10 254 363 262 363 1 0 -17 -55 -41 -122z"/>
<path d="M240 241 c0 -25 43 -34 146 -34 88 0 144 10 144 26 0 9 -33 11 -126
10 -71 -2 -134 2 -145 7 -16 9 -19 7 -19 -9z"/>
<path d="M250 173 c0 -7 6 -13 13 -14 6 0 21 -2 32 -5 35 -7 140 -5 213 4 6 1
12 8 12 15 0 9 -34 12 -135 12 -101 0 -135 -3 -135 -12z"/>
<path d="M250 124 c0 -21 15 -25 103 -29 102 -4 162 5 162 25 0 8 -7 13 -15
11 -31 -7 -161 -8 -205 -1 -33 5 -45 4 -45 -6z"/>
<path d="M310 60 c0 -17 49 -50 76 -50 28 0 74 30 74 49 0 5 -34 8 -75 8 -41
0 -75 -3 -75 -7z"/>
</g>
</svg>
